{"title":"The Naked Gun 2.5-Smell Of Fear h.264 by winker","uid":5221396,"size":943837727,"categoryP":"video","categoryS":"movies","magnet":"?xt=urn:btih:874d50f33cbf609e8b0a538761c00a942a0d42e1&amp;dn=The+Naked+Gun+2.5-Smell+Of+Fear+h.264+by+winker&amp;tr=udp%3A%2F%2Ftracker.openbittorrent.com%3A80&amp;tr=udp%3A%2F%2Fopen.demonii.com%3A1337&amp;tr=udp%3A%2F%2Ftracker.coppersurfer.tk%3A6969&amp;tr=udp%3A%2F%2Fexodus.desync.com%3A6969","seeders":0,"leechers":1,"uploader":"alanwatson","files":-1,"time":1260949869,"description":"Lt Frank Drebin (Leslie Nielsen) loves a mystery. Why are we here? Is there life after sex? Yes, Drebin tackles the big issues - and the biggest of all is how to stop devious Quentin Hapsburg's (Robert Goulet) plan to destroy the environment!\n\nReturning with Nielsen in this hilarious Naked Gun sequel are Priscilla Presley as Jane, the woman who can melt a cheese sandwich from 20 paces, and George Kennedy as intrepid Captain Ed Hocken. The gang's all here. And so are the laughs. Like Drebin, you're gonna love it.\n\nFormat                           : MPEG-4\nFormat profile                   : Base Media / Version 2\nCodec ID                         : mp42\nFile size                        : 900 MiB\nDuration                         : 1h 21mn\nOverall bit rate                 : 1 542 Kbps\nEncoded date                     : UTC 2009-12-15 08:24:53\nTagged date                      : UTC 2009-12-15 17:39:06\nWriting application              : HandBrake 0.9.3 2008112300\n\nVideo\nID                               : 1\nFormat                           : AVC\nFormat/Info                      : Advanced Video Codec\nFormat profile                   : &lt;a class=&quot;__cf_email__&quot; href=&quot;/cdn-cgi/l/email-protection&quot; data-cfemail=&quot;480529212608047c6678&quot;&gt;[email&amp;#160;protected]&lt;/a&gt;&lt;script cf-hash='f9e31' type=&quot;text/javascript&quot;&gt;\n/* &lt;![CDATA[ */!function(){try{var t=&quot;currentScript&quot;in document?document.currentScript:function(){for(var t=document.getElementsByTagName(&quot;script&quot;),e=t.length;e--;)if(t[e].getAttribute(&quot;cf-hash&quot;))return t[e]}();if(t&amp;&amp;t.previousSibling){var e,r,n,i,c=t.previousSibling,a=c.getAttribute(&quot;data-cfemail&quot;);if(a){for(e=&quot;&quot;,r=parseInt(a.substr(0,2),16),n=2;a.length-n;n+=2)i=parseInt(a.substr(n,2),16)^r,e+=String.fromCharCode(i);e=document.createTextNode(e),c.parentNode.replaceChild(e,c)}}}catch(u){}}();/* ]]&gt; */&lt;/script&gt;\nFormat settings, CABAC           : Yes\nFormat settings, ReFrames        : 3 frames\nCodec ID                         : avc1\nCodec ID/Info                    : Advanced Video Coding\nDuration                         : 1h 21mn\nBit rate mode                    : Variable\nBit rate                         : 1 378 Kbps\nWidth                            : 718 pixels\nHeight                           : 574 pixels\nDisplay aspect ratio             : 16:9\nFrame rate mode                  : Variable\nFrame rate                       : 25.000 fps\nMinimum frame rate               : 12.500 fps\nMaximum frame rate               : 25.000 fps\nResolution                       : 24 bits\nColorimetry                      : 4:2:0\nScan type                        : Progressive\nBits/(Pixel*Frame)               : 0.134\nStream size                      : 804 MiB (89%)\nWriting library                  : x264 core 65\n\n\nAudio\nID                               : 2\nFormat                           : AAC\nFormat/Info                      : Advanced Audio Codec\nFormat version                   : Version 4\nFormat profile                   : LC\nFormat settings, SBR             : No\nCodec ID                         : 40\nDuration                         : 1h 21mn\nBit rate mode                    : Variable\nBit rate                         : 160 Kbps\nMaximum bit rate                 : 199 Kbps\nChannel(s)                       : 2 channels\nChannel positions                : L R\nSampling rate                    : 48.0 KHz\nResolution                       : 16 bits\nStream size                      : 93.4 MiB (10%)\nLanguage                         : English\nEncoded date                     : UTC 2009-12-15 08:24:54\nTagged date                      : UTC 2009-12-15 17:39:02\n\n","torrent":{"xt":"urn:btih:874d50f33cbf609e8b0a538761c00a942a0d42e1","amp;dn":"The+Naked+Gun+2.5-Smell+Of+Fear+h.264+by+winker","amp;tr":["udp%3A%2F%2Ftracker.openbittorrent.com%3A80","udp%3A%2F%2Fopen.demonii.com%3A1337","udp%3A%2F%2Ftracker.coppersurfer.tk%3A6969","udp%3A%2F%2Fexodus.desync.com%3A6969"],"infoHash":"874d50f33cbf609e8b0a538761c00a942a0d42e1","infoHashBuffer":{"type":"Buffer","data":[135,77,80,243,60,191,96,158,139,10,83,135,97,192,10,148,42,13,66,225]},"announce":[],"urlList":[]}}